<svg xmlns="http://www.w3.org/2000/svg">

<symbol id="logo" viewBox="0 0 142.02 46.8" width="142.02" height="46.8"><path d="M0,15.48a49.83,49.83,0,0,1,5.88-1.23,48.32,48.32,0,0,1,7.56-.57,18.41,18.41,0,0,1,6.69,1.05,10,10,0,0,1,4.23,3,11.57,11.57,0,0,1,2.22,4.56,24.26,24.26,0,0,1,.66,5.88V46H18.3V29.22q0-4.32-1.14-6.12T12.9,21.3q-1,0-2,.09t-1.92.21V46H0Z" style="fill:#000"/><path d="M46.68,13.56a20.7,20.7,0,0,1,6.6.9A10.25,10.25,0,0,1,57.51,17a9.48,9.48,0,0,1,2.25,4.08,20.12,20.12,0,0,1,.66,5.34v18.6q-1.92.42-5.34,1a51.31,51.31,0,0,1-8.28.57,26.25,26.25,0,0,1-5.55-.54A12,12,0,0,1,37,44.31,8.1,8.1,0,0,1,34.2,41.1a11.08,11.08,0,0,1-1-4.86,9.21,9.21,0,0,1,1.11-4.68,8.54,8.54,0,0,1,3-3.06,13.42,13.42,0,0,1,4.26-1.65,23.9,23.9,0,0,1,5-.51,28.27,28.27,0,0,1,3.09.15,13.75,13.75,0,0,1,2.19.39V26a5,5,0,0,0-1.38-3.66Q49.08,21,45.66,21a30.56,30.56,0,0,0-4.5.33,19.3,19.3,0,0,0-3.84.93l-1.14-7.2q.78-.24,2-.51t2.55-.48q1.38-.21,2.91-.36T46.68,13.56Zm.72,26.16q1.32,0,2.52-.06a17.53,17.53,0,0,0,1.92-.18V32.7q-.54-.12-1.62-.24a18,18,0,0,0-2-.12,17.72,17.72,0,0,0-2.37.15,6.19,6.19,0,0,0-1.95.57A3.35,3.35,0,0,0,42.6,34.2a3.18,3.18,0,0,0-.48,1.8,3.07,3.07,0,0,0,1.41,2.91A7.79,7.79,0,0,0,47.4,39.72Z" style="fill:#000"/><path d="M68.22,6.54,77.16,5.1v9.3H87.9v7.44H77.16v11.1a8.83,8.83,0,0,0,1,4.5q1,1.68,4,1.68a17.08,17.08,0,0,0,3-.27,15.31,15.31,0,0,0,2.79-.75l1.26,7a25.44,25.44,0,0,1-3.6,1.14,21,21,0,0,1-4.86.48,16,16,0,0,1-6.06-1,9.51,9.51,0,0,1-3.84-2.76,10.27,10.27,0,0,1-2-4.29,25.33,25.33,0,0,1-.57-5.58Z" style="fill:#000"/><path d="M104.94,5.28a4.91,4.91,0,0,1-1.59,3.87,5.69,5.69,0,0,1-7.5,0,4.91,4.91,0,0,1-1.59-3.87,4.91,4.91,0,0,1,1.59-3.87,5.69,5.69,0,0,1,7.5,0A4.91,4.91,0,0,1,104.94,5.28ZM104.1,46H95.16V14.4h8.94Z" style="fill:#000"/><path d="M142,30.12a20.52,20.52,0,0,1-1.08,6.81,14.8,14.8,0,0,1-3.12,5.28,14,14,0,0,1-4.89,3.39,17.45,17.45,0,0,1-12.72,0,14,14,0,0,1-4.89-3.39,15.52,15.52,0,0,1-3.18-5.28A19.54,19.54,0,0,1,111,30.12a18.85,18.85,0,0,1,1.17-6.78,15.38,15.38,0,0,1,3.24-5.22,14.55,14.55,0,0,1,4.92-3.36,16.82,16.82,0,0,1,12.48,0,14.24,14.24,0,0,1,4.89,3.36,15.25,15.25,0,0,1,3.18,5.22A19.29,19.29,0,0,1,142,30.12Zm-9.12,0a11.24,11.24,0,0,0-1.65-6.51,5.4,5.4,0,0,0-4.71-2.37,5.47,5.47,0,0,0-4.74,2.37,11.09,11.09,0,0,0-1.68,6.51,11.38,11.38,0,0,0,1.68,6.57,5.43,5.43,0,0,0,4.74,2.43,5.36,5.36,0,0,0,4.71-2.43A11.53,11.53,0,0,0,132.9,30.12Z" style="fill:#000"/>

<symbol id="search" viewBox="0 0 24 24" width="24" height="24">
  <path fill="none" d="M0 0h24v24H0z"/><path d="M18.031 16.617l4.283 4.282-1.415 1.415-4.282-4.283A8.96 8.96 0 0 1 11 20c-4.968 0-9-4.032-9-9s4.032-9 9-9 9 4.032 9 9a8.96 8.96 0 0 1-1.969 5.617zm-2.006-.742A6.977 6.977 0 0 0 18 11c0-3.868-3.133-7-7-7-3.868 0-7 3.132-7 7 0 3.867 3.132 7 7 7a6.977 6.977 0 0 0 4.875-1.975l.15-.15z" fill="#000"/>
</symbol>

<symbol id="discover" viewBox="0 0 24 24" width="24" height="24">
  <path fill="none" d="M0 0h24v24H0z"/><path d="M12 22C6.477 22 2 17.523 2 12S6.477 2 12 2s10 4.477 10 10-4.477 10-10 10zm0-2a8 8 0 1 0 0-16 8 8 0 0 0 0 16zm-5-8.5L16 8l-3.5 9.002L11 13l-4-1.5z" fill="#000"/>
</symbol>

<symbol id="map-pin" viewBox="0 0 24 24" width="24" height="24">
  <path d="M12 20.9l4.95-4.95a7 7 0 1 0-9.9 0L12 20.9zm0 2.828l-6.364-6.364a9 9 0 1 1 12.728 0L12 23.728zM12 13a2 2 0 1 0 0-4 2 2 0 0 0 0 4zm0 2a4 4 0 1 1 0-8 4 4 0 0 1 0 8z" fill="#000"/>
</symbol>

<symbol id="building" viewBox="0 0 24 24" width="24" height="24">
  <path fill="none" d="M0 0h24v24H0z"/><path d="M3 19V5.7a1 1 0 0 1 .658-.94l9.671-3.516a.5.5 0 0 1 .671.47v4.953l6.316 2.105a1 1 0 0 1 .684.949V19h2v2H1v-2h2zm2 0h7V3.855L5 6.401V19zm14 0v-8.558l-5-1.667V19h5z" fill="#000"/>
</symbol>

<symbol id="parent" viewBox="0 0 24 24" width="24" height="24">
  <path fill="none" d="M0 0h24v24H0z"/><path d="M7 9a2.5 2.5 0 1 0 0-5 2.5 2.5 0 0 0 0 5zm0 2a4.5 4.5 0 1 1 0-9 4.5 4.5 0 0 1 0 9zm10.5 2a2 2 0 1 0 0-4 2 2 0 0 0 0 4zm0 2a4 4 0 1 1 0-8 4 4 0 0 1 0 8zm2.5 6v-.5a2.5 2.5 0 1 0-5 0v.5h-2v-.5a4.5 4.5 0 1 1 9 0v.5h-2zm-10 0v-4a3 3 0 0 0-6 0v4H2v-4a5 5 0 0 1 10 0v4h-2z" fill="#000"/>
</symbol>

<symbol id="translate" viewBox="0 0 24 24" width="24" height="24">
  <path fill="none" d="M0 0h24v24H0z"/><path d="M18.5 10l4.4 11h-2.155l-1.201-3h-4.09l-1.199 3h-2.154L16.5 10h2zM10 2v2h6v2h-1.968a18.222 18.222 0 0 1-3.62 6.301 14.864 14.864 0 0 0 2.336 1.707l-.751 1.878A17.015 17.015 0 0 1 9 13.725a16.676 16.676 0 0 1-6.201 3.548l-.536-1.929a14.7 14.7 0 0 0 5.327-3.042A18.078 18.078 0 0 1 4.767 8h2.24A16.032 16.032 0 0 0 9 10.877a16.165 16.165 0 0 0 2.91-4.876L2 6V4h6V2h2zm7.5 10.885L16.253 16h2.492L17.5 12.885z" fill="#000"/>
</symbol>

<symbol id="currency" viewBox="0 0 24 24" width="24" height="24">
  <path fill="none" d="M0 0h24v24H0z"/><path d="M17 16h2V4H9v2h8v10zm0 2v3c0 .552-.45 1-1.007 1H4.007A1.001 1.001 0 0 1 3 21l.003-14c0-.552.45-1 1.007-1H7V3a1 1 0 0 1 1-1h12a1 1 0 0 1 1 1v14a1 1 0 0 1-1 1h-3zM5.003 8L5 20h10V8H5.003zM7 16h4.5a.5.5 0 1 0 0-1h-3a2.5 2.5 0 1 1 0-5H9V9h2v1h2v2H8.5a.5.5 0 1 0 0 1h3a2.5 2.5 0 1 1 0 5H11v1H9v-1H7v-2z" fill="#000"/>
</symbol>

<symbol id="steering" viewBox="0 0 24 24" width="24" height="24">
  <path fill="none" d="M0 0h24v24H0z"/><path d="M21.8 14.001a10.009 10.009 0 0 1-8.4 7.902v-2.025A8.01 8.01 0 0 0 19.748 14l2.052.001zm-17.548 0a8.01 8.01 0 0 0 6.247 5.858v2.03A10.01 10.01 0 0 1 2.2 14h2.052zM18 11v2h-3a2 2 0 0 0-1.995 1.85L13 15v3h-2v-3a2 2 0 0 0-1.85-1.995L9 13H6v-2h12zm-6-9c5.185 0 9.449 3.947 9.95 9h-2.012a8.001 8.001 0 0 0-15.876 0H2.049C2.551 5.947 6.815 2 12 2z" fill="#000"/>
</symbol>

<symbol id="map" viewBox="0 0 24 24" width="24" height="24">
  <path fill="none" d="M0 0h24v24H0z"/><path d="M2 5l7-3 6 3 6.303-2.701a.5.5 0 0 1 .697.46V19l-7 3-6-3-6.303 2.701a.5.5 0 0 1-.697-.46V5zm14 14.395l4-1.714V5.033l-4 1.714v12.648zm-2-.131V6.736l-4-2v12.528l4 2zm-6-2.011V4.605L4 6.319v12.648l4-1.714z" fill="#000"/>
</symbol>

</svg>